<svg width="56" height="51" viewBox="0 0 56 51" fill="none" xmlns="http://www.w3.org/2000/svg">
<path d="M38.5664 24.1934C38.5664 26.3848 38.2786 28.4987 37.7031 30.5352C37.1497 32.5495 36.3529 34.4421 35.3125 36.2129C34.2721 37.9616 33.0326 39.5664 31.5938 41.0273C30.1549 42.4661 28.5501 43.7057 26.7793 44.7461C25.0085 45.7865 23.1048 46.5944 21.0684 47.1699C19.054 47.7233 16.9512 48 14.7598 48H0.416016V0.386719H14.7598C16.9512 0.386719 19.054 0.674479 21.0684 1.25C23.1048 1.80339 25.0085 2.60026 26.7793 3.64062C28.5501 4.68099 30.1549 5.93164 31.5938 7.39258C33.0326 8.83138 34.2721 10.4362 35.3125 12.207C36.3529 13.9557 37.1497 15.8483 37.7031 17.8848C38.2786 19.8991 38.5664 22.002 38.5664 24.1934ZM29.0371 24.1934C29.0371 22.2233 28.6608 20.375 27.9082 18.6484C27.1777 16.9219 26.1595 15.4167 24.8535 14.1328C23.5697 12.8268 22.0534 11.7975 20.3047 11.0449C18.5781 10.2923 16.7298 9.91602 14.7598 9.91602H10.0117V38.4707H14.7598C16.7298 38.4707 18.5781 38.1055 20.3047 37.375C22.0534 36.6224 23.5697 35.6042 24.8535 34.3203C26.1595 33.0143 27.1777 31.498 27.9082 29.7715C28.6608 28.0228 29.0371 26.1634 29.0371 24.1934Z" fill="#9BDAF2"/>
<path d="M55.1016 44.6133C55.1016 45.4102 54.9577 46.1628 54.6699 46.8711C54.3822 47.5573 53.9837 48.1549 53.4746 48.6641C52.9655 49.1732 52.3678 49.5716 51.6816 49.8594C50.9954 50.1693 50.2539 50.3242 49.457 50.3242C48.6823 50.3242 47.9408 50.1693 47.2324 49.8594C46.5462 49.5716 45.9375 49.1732 45.4062 48.6641C44.8971 48.1549 44.4876 47.5573 44.1777 46.8711C43.89 46.1628 43.7461 45.4102 43.7461 44.6133C43.7461 43.8385 43.89 43.1081 44.1777 42.4219C44.4876 41.7357 44.8971 41.138 45.4062 40.6289C45.9375 40.1198 46.5462 39.7214 47.2324 39.4336C47.9408 39.1237 48.6823 38.9688 49.457 38.9688C50.2539 38.9688 50.9954 39.1237 51.6816 39.4336C52.3678 39.7214 52.9655 40.1198 53.4746 40.6289C53.9837 41.138 54.3822 41.7357 54.6699 42.4219C54.9577 43.1081 55.1016 43.8385 55.1016 44.6133Z" fill="white"/>
</svg>
