<svg width="212" height="51" viewBox="0 0 212 51" fill="none" xmlns="http://www.w3.org/2000/svg">
<path d="M38.5664 24.1934C38.5664 26.3848 38.2786 28.4987 37.7031 30.5352C37.1497 32.5495 36.3529 34.4421 35.3125 36.2129C34.2721 37.9616 33.0326 39.5664 31.5938 41.0273C30.1549 42.4661 28.5501 43.7057 26.7793 44.7461C25.0085 45.7865 23.1048 46.5944 21.0684 47.1699C19.054 47.7233 16.9512 48 14.7598 48H0.416016V0.386719H14.7598C16.9512 0.386719 19.054 0.674479 21.0684 1.25C23.1048 1.80339 25.0085 2.60026 26.7793 3.64062C28.5501 4.68099 30.1549 5.93164 31.5938 7.39258C33.0326 8.83138 34.2721 10.4362 35.3125 12.207C36.3529 13.9557 37.1497 15.8483 37.7031 17.8848C38.2786 19.8991 38.5664 22.002 38.5664 24.1934ZM29.0371 24.1934C29.0371 22.2233 28.6608 20.375 27.9082 18.6484C27.1777 16.9219 26.1595 15.4167 24.8535 14.1328C23.5697 12.8268 22.0534 11.7975 20.3047 11.0449C18.5781 10.2923 16.7298 9.91602 14.7598 9.91602H10.0117V38.4707H14.7598C16.7298 38.4707 18.5781 38.1055 20.3047 37.375C22.0534 36.6224 23.5697 35.6042 24.8535 34.3203C26.1595 33.0143 27.1777 31.498 27.9082 29.7715C28.6608 28.0228 29.0371 26.1634 29.0371 24.1934ZM53.0098 48H43.9453V12.4395H46.1367L49.125 16.6562C50.5859 15.3281 52.2461 14.3099 54.1055 13.6016C55.9648 12.8711 57.8906 12.5059 59.8828 12.5059H67.8848V21.5371H59.8828C58.931 21.5371 58.0345 21.7142 57.1934 22.0684C56.3522 22.4225 55.6217 22.9095 55.002 23.5293C54.3822 24.1491 53.8952 24.8796 53.541 25.7207C53.1868 26.5618 53.0098 27.4583 53.0098 28.4102V48ZM85.582 39.3008C85.9362 39.4115 86.2904 39.4889 86.6445 39.5332C86.9987 39.5553 87.3529 39.5664 87.707 39.5664C88.5924 39.5664 89.4447 39.4447 90.2637 39.2012C91.0827 38.9577 91.8464 38.6146 92.5547 38.1719C93.2852 37.707 93.9271 37.1536 94.4805 36.5117C95.056 35.8477 95.5208 35.1172 95.875 34.3203L102.516 40.9941C101.674 42.1895 100.701 43.263 99.5938 44.2148C98.5091 45.1667 97.3249 45.9746 96.041 46.6387C94.7793 47.3027 93.4401 47.8008 92.0234 48.1328C90.6289 48.487 89.1901 48.6641 87.707 48.6641C85.2057 48.6641 82.8483 48.1992 80.6348 47.2695C78.4434 46.3398 76.5176 45.0449 74.8574 43.3848C73.2194 41.7246 71.9245 39.7546 70.9727 37.4746C70.0208 35.1725 69.5449 32.6491 69.5449 29.9043C69.5449 27.0931 70.0208 24.5254 70.9727 22.2012C71.9245 19.877 73.2194 17.8958 74.8574 16.2578C76.5176 14.6198 78.4434 13.347 80.6348 12.4395C82.8483 11.5319 85.2057 11.0781 87.707 11.0781C89.1901 11.0781 90.64 11.2552 92.0566 11.6094C93.4733 11.9635 94.8125 12.4727 96.0742 13.1367C97.3581 13.8008 98.5534 14.6198 99.6602 15.5938C100.767 16.5456 101.741 17.6191 102.582 18.8145L85.582 39.3008ZM90.2305 20.6074C89.8099 20.4525 89.3893 20.3529 88.9688 20.3086C88.5703 20.2643 88.1497 20.2422 87.707 20.2422C86.4674 20.2422 85.2943 20.4746 84.1875 20.9395C83.1029 21.3822 82.151 22.0241 81.332 22.8652C80.5352 23.7064 79.9043 24.7246 79.4395 25.9199C78.9746 27.0931 78.7422 28.4212 78.7422 29.9043C78.7422 30.2363 78.7533 30.6126 78.7754 31.0332C78.8197 31.4538 78.875 31.8854 78.9414 32.3281C79.0299 32.7487 79.1296 33.1582 79.2402 33.5566C79.3509 33.9551 79.4948 34.3092 79.6719 34.6191L90.2305 20.6074ZM141.33 48H139.139L135.619 43.1191C134.756 43.8939 133.837 44.6243 132.863 45.3105C131.911 45.9746 130.904 46.5612 129.842 47.0703C128.779 47.5573 127.684 47.9447 126.555 48.2324C125.448 48.5202 124.319 48.6641 123.168 48.6641C120.667 48.6641 118.309 48.2435 116.096 47.4023C113.904 46.5612 111.979 45.3438 110.318 43.75C108.68 42.1341 107.385 40.1641 106.434 37.8398C105.482 35.5156 105.006 32.8704 105.006 29.9043C105.006 27.1374 105.482 24.6029 106.434 22.3008C107.385 19.9766 108.68 17.9844 110.318 16.3242C111.979 14.6641 113.904 13.3802 116.096 12.4727C118.309 11.543 120.667 11.0781 123.168 11.0781C124.319 11.0781 125.459 11.222 126.588 11.5098C127.717 11.7975 128.812 12.196 129.875 12.7051C130.938 13.2142 131.945 13.8118 132.896 14.498C133.87 15.1842 134.778 15.9258 135.619 16.7227L139.139 12.5059H141.33V48ZM132.199 29.9043C132.199 28.6647 131.956 27.4694 131.469 26.3184C131.004 25.1452 130.362 24.1159 129.543 23.2305C128.724 22.3229 127.761 21.6035 126.654 21.0723C125.57 20.5189 124.408 20.2422 123.168 20.2422C121.928 20.2422 120.755 20.4525 119.648 20.873C118.564 21.2936 117.612 21.9134 116.793 22.7324C115.996 23.5514 115.365 24.5697 114.9 25.7871C114.436 26.9824 114.203 28.3548 114.203 29.9043C114.203 31.4538 114.436 32.8372 114.9 34.0547C115.365 35.25 115.996 36.2572 116.793 37.0762C117.612 37.8952 118.564 38.515 119.648 38.9355C120.755 39.3561 121.928 39.5664 123.168 39.5664C124.408 39.5664 125.57 39.3008 126.654 38.7695C127.761 38.2161 128.724 37.4967 129.543 36.6113C130.362 35.7038 131.004 34.6745 131.469 33.5234C131.956 32.3503 132.199 31.1439 132.199 29.9043ZM193.492 48H184.461V25.4219C184.461 24.8021 184.339 24.2155 184.096 23.6621C183.874 23.1087 183.553 22.6217 183.133 22.2012C182.712 21.7806 182.225 21.4596 181.672 21.2383C181.118 20.9948 180.532 20.873 179.912 20.873C179.292 20.873 178.706 20.9948 178.152 21.2383C177.621 21.4596 177.145 21.7806 176.725 22.2012C176.326 22.6217 176.005 23.1087 175.762 23.6621C175.54 24.2155 175.43 24.8021 175.43 25.4219V48H166.365V25.4219C166.365 24.8021 166.243 24.2155 166 23.6621C165.779 23.1087 165.458 22.6217 165.037 22.2012C164.617 21.7806 164.13 21.4596 163.576 21.2383C163.023 20.9948 162.436 20.873 161.816 20.873C161.197 20.873 160.61 20.9948 160.057 21.2383C159.525 21.4596 159.049 21.7806 158.629 22.2012C158.23 22.6217 157.91 23.1087 157.666 23.6621C157.445 24.2155 157.334 24.8021 157.334 25.4219V48H148.27V12.4395H150.461L152.918 15.1621C154.18 14.0996 155.563 13.2806 157.068 12.7051C158.596 12.1074 160.178 11.8086 161.816 11.8086C163.477 11.8086 165.092 12.1185 166.664 12.7383C168.258 13.3581 169.652 14.4316 170.848 15.959C171.401 15.2064 172.032 14.5645 172.74 14.0332C173.449 13.502 174.19 13.0703 174.965 12.7383C175.762 12.4062 176.581 12.1738 177.422 12.041C178.263 11.8861 179.093 11.8086 179.912 11.8086C181.794 11.8086 183.553 12.1628 185.191 12.8711C186.852 13.5794 188.29 14.5534 189.508 15.793C190.747 17.0104 191.721 18.4492 192.43 20.1094C193.138 21.7695 193.492 23.5404 193.492 25.4219V48Z" fill="#9BDAF2"/>
<path d="M211.289 44.6133C211.289 45.4102 211.145 46.1628 210.857 46.8711C210.57 47.5573 210.171 48.1549 209.662 48.6641C209.153 49.1732 208.555 49.5716 207.869 49.8594C207.183 50.1693 206.441 50.3242 205.645 50.3242C204.87 50.3242 204.128 50.1693 203.42 49.8594C202.734 49.5716 202.125 49.1732 201.594 48.6641C201.085 48.1549 200.675 47.5573 200.365 46.8711C200.077 46.1628 199.934 45.4102 199.934 44.6133C199.934 43.8385 200.077 43.1081 200.365 42.4219C200.675 41.7357 201.085 41.138 201.594 40.6289C202.125 40.1198 202.734 39.7214 203.42 39.4336C204.128 39.1237 204.87 38.9688 205.645 38.9688C206.441 38.9688 207.183 39.1237 207.869 39.4336C208.555 39.7214 209.153 40.1198 209.662 40.6289C210.171 41.138 210.57 41.7357 210.857 42.4219C211.145 43.1081 211.289 43.8385 211.289 44.6133Z" fill="white"/>
</svg>
